<svg xmlns="http://www.w3.org/2000/svg" viewBox="0 0 160 160" fill="none">
  <g stroke="#8B7440" stroke-width="2.2" stroke-linecap="round" stroke-linejoin="round">
    <circle cx="80" cy="80" r="62"/>
    <path d="M99 38c-9 8-13 18-14 27-1 12 7 20 7 31 0 13-10 22-20 25"/>
    <path d="M84 48c-4 12-12 20-22 27-5 4-8 8-8 13 0 5 4 8 10 8"/>
    <path d="M64 96c-2 9 2 17 10 23"/>
    <path d="M68 69c6-2 12 0 16 4"/>
    <path d="M68 81c4 3 9 3 13 0"/>
    <path d="M88 104c4 2 8 3 12 2"/>
    <circle cx="103" cy="84" r="2.2"/>
    <circle cx="111" cy="93" r="2.2"/>
    <circle cx="101" cy="101" r="2.2"/>
    <circle cx="115" cy="108" r="2.2"/>
  </g>
</svg>