<svg xmlns="http://www.w3.org/2000/svg" viewBox="0 0 160 160" fill="none">
  <g stroke="#8B7440" stroke-width="2.2" stroke-linecap="round" stroke-linejoin="round">
    <circle cx="80" cy="80" r="62"/>
    <path d="M46 75c11-12 23-18 35-18s25 6 36 18"/>
    <path d="M48 79c10 10 21 15 33 15s24-5 34-15"/>
    <path d="M60 77c5-6 12-9 21-9 8 0 15 3 20 9-5 6-12 9-20 9-9 0-16-3-21-9z"/>
    <circle cx="81" cy="77" r="3.5"/>
    <path d="M61 101c13 4 27 4 40 0"/>
    <path d="M66 111c10 3 20 3 30 0"/>
  </g>
</svg>