<svg xmlns="http://www.w3.org/2000/svg" viewBox="0 0 160 160" fill="none">
  <g stroke="#8B7440" stroke-width="2.2" stroke-linecap="round" stroke-linejoin="round">
    <circle cx="80" cy="80" r="62"/>
    <path d="M80 32v96"/>
    <path d="M80 42c-18 0-31 14-31 34v17c0 18 13 31 31 31s31-13 31-31V76c0-20-13-34-31-34z"/>
    <path d="M57 71c5-4 11-5 17-2"/>
    <path d="M86 69c6-3 12-2 17 2"/>
    <path d="M60 82c4 3 9 3 13 0"/>
    <path d="M88 82c4 3 9 3 13 0"/>
    <path d="M74 99c4 2 8 2 12 0"/>
    <circle cx="96" cy="88" r="2"/>
    <circle cx="104" cy="97" r="2"/>
    <circle cx="93" cy="105" r="2"/>
    <circle cx="108" cy="111" r="2"/>
  </g>
</svg>